<svg width="42" height="38" viewBox="0 0 42 38" fill="none" xmlns="http://www.w3.org/2000/svg">
<path d="M36.033 11.0597C36.0229 11.0097 36.008 10.9605 35.9885 10.9128C35.9689 10.8659 35.9447 10.8206 35.9166 10.7784C35.8877 10.7355 35.8557 10.6956 35.8189 10.6597C35.7829 10.6237 35.7432 10.5909 35.7001 10.5628C35.6579 10.5347 35.6127 10.5105 35.5657 10.4909C35.5189 10.4714 35.4697 10.4558 35.4196 10.4464C35.3189 10.4261 35.215 10.4261 35.1142 10.4464C35.0642 10.4558 35.015 10.4714 34.9682 10.4909C34.9213 10.5105 34.876 10.5339 34.833 10.5628C34.7907 10.5909 34.7502 10.6237 34.7143 10.6597C34.6783 10.6956 34.6454 10.7355 34.6174 10.7784C34.5892 10.8206 34.565 10.8659 34.5455 10.9128C34.526 10.9605 34.5111 11.0097 34.501 11.0597C34.4908 11.1097 34.4854 11.1612 34.4854 11.212C34.4854 11.2628 34.4908 11.3144 34.501 11.3644C34.5111 11.4144 34.526 11.4636 34.5455 11.5105C34.565 11.5581 34.5893 11.6034 34.6174 11.6456C34.6454 11.6886 34.6783 11.7284 34.7143 11.7644C34.7502 11.8003 34.7908 11.8331 34.833 11.8612C34.8759 11.8894 34.9212 11.9136 34.9682 11.9331C35.015 11.9526 35.0642 11.9675 35.1142 11.9776C35.165 11.9878 35.2158 11.9933 35.2665 11.9933C35.4728 11.9933 35.6736 11.9097 35.8189 11.7644C35.8557 11.7284 35.8877 11.6886 35.9166 11.6456C35.9447 11.6034 35.9689 11.5581 35.9885 11.5105C36.008 11.4636 36.0229 11.4144 36.033 11.3644C36.0432 11.3144 36.0479 11.2628 36.0479 11.212C36.0479 11.1612 36.0432 11.1097 36.033 11.0597Z" fill="white"/>
<path d="M41.2188 0H2.78125C2.34977 0 2 0.349766 2 0.78125V7.53531C2 7.9668 2.34977 8.31656 2.78125 8.31656H3.8757V37.0019C3.8757 37.4334 4.22547 37.7831 4.65695 37.7831H39.343C39.7745 37.7831 40.1243 37.4334 40.1243 37.0019V8.31656H41.2188C41.6502 8.31656 42 7.9668 42 7.53531V0.78125C42 0.349766 41.6502 0 41.2188 0ZM16.8502 1.5625H27.1498V6.75406H16.8502V1.5625ZM16.8502 8.31656H27.1498V18.5224L25.4091 17.315C25.1413 17.1293 24.7864 17.1293 24.5187 17.3149L22 19.0611L19.4812 17.3148C19.3473 17.222 19.1917 17.1756 19.0361 17.1756C18.8804 17.1756 18.7247 17.2221 18.5908 17.3149L16.8502 18.5223V8.31656ZM3.5625 6.75406V1.5625H15.2877V6.75406H3.5625ZM15.2877 8.31656V10.4306H5.4382V8.31656H15.2877V8.31656ZM23.2149 22.4364V36.2206H5.4382V11.993H15.2877V20.0151C15.2877 20.3058 15.4491 20.5724 15.7067 20.7073C15.9643 20.8421 16.2755 20.8227 16.5143 20.657L19.0362 18.9077L21.5548 20.6538C21.8226 20.8395 22.1774 20.8395 22.4451 20.6538L24.9638 18.9077L27.4857 20.657C27.6189 20.7494 27.7746 20.7963 27.931 20.7963C28.0549 20.7963 28.1794 20.7668 28.2932 20.7073C28.5508 20.5724 28.7122 20.3058 28.7122 20.0151V11.993H32.1389C32.5703 11.993 32.9202 11.6433 32.9202 11.2118C32.9202 10.7803 32.5703 10.4305 32.1389 10.4305H28.7122V8.31648H38.5617V21.6552H23.9962C23.5648 21.6552 23.2149 22.0049 23.2149 22.4364ZM38.5618 36.2206H24.7774V23.2177H38.5618V36.2206ZM40.4375 6.75406H28.7123V1.5625H40.4375V6.75406Z" fill="white"/>
<path d="M37.2022 28.0447C37.0264 26.3059 35.6157 24.998 33.9102 24.998C33.0804 24.998 32.328 25.3318 31.7588 25.9262C31.1429 25.3519 30.3091 24.998 29.4637 24.998C27.7731 24.998 26.4729 26.2495 26.2935 28.045C26.27 28.2039 26.236 28.625 26.3899 29.2452C26.6228 30.1819 27.1567 31.0307 27.9397 31.7047L31.1957 34.452C31.3537 34.5866 31.5507 34.6538 31.7477 34.6538C31.9445 34.6538 32.1413 34.5868 32.2993 34.4526L35.5614 31.6999C36.3388 31.0314 36.8727 30.1826 37.1056 29.2452C37.2598 28.6247 37.2255 28.2034 37.2022 28.0447ZM35.5891 28.8684C35.4348 29.4897 35.0729 30.0591 34.5481 30.5105L31.7477 32.8735L28.9531 30.5155C28.4225 30.0587 28.0606 29.4892 27.9063 28.8684C27.8248 28.5398 27.8334 28.338 27.8375 28.2875C27.8453 28.2569 27.8428 28.2569 27.8465 28.2167C27.9237 27.3923 28.4536 26.5604 29.4636 26.5604C30.1313 26.5604 30.8092 26.9949 31.0753 27.5935C31.2008 27.8755 31.4806 28.0573 31.7892 28.0573C31.7892 28.0573 31.7893 28.0573 31.7894 28.0573C32.0981 28.0573 32.3779 27.8755 32.5032 27.5933C32.6746 27.2076 33.0852 26.5605 33.9102 26.5605C34.8279 26.5605 35.5592 27.257 35.6491 28.2168C35.6528 28.2569 35.6502 28.2569 35.6581 28.2875C35.6621 28.338 35.6708 28.5398 35.5891 28.8684Z" fill="white"/>
<path d="M34.033 11.0597C34.0229 11.0097 34.008 10.9605 33.9885 10.9128C33.9689 10.8659 33.9447 10.8206 33.9166 10.7784C33.8877 10.7355 33.8557 10.6956 33.8189 10.6597C33.7829 10.6237 33.7432 10.5909 33.7001 10.5628C33.6579 10.5347 33.6127 10.5105 33.5657 10.4909C33.5189 10.4714 33.4697 10.4558 33.4196 10.4464C33.3189 10.4261 33.215 10.4261 33.1142 10.4464C33.0642 10.4558 33.015 10.4714 32.9682 10.4909C32.9213 10.5105 32.876 10.5339 32.833 10.5628C32.7907 10.5909 32.7502 10.6237 32.7143 10.6597C32.6783 10.6956 32.6454 10.7355 32.6174 10.7784C32.5892 10.8206 32.565 10.8659 32.5455 10.9128C32.526 10.9605 32.5111 11.0097 32.501 11.0597C32.4908 11.1097 32.4854 11.1612 32.4854 11.212C32.4854 11.2628 32.4908 11.3144 32.501 11.3644C32.5111 11.4144 32.526 11.4636 32.5455 11.5105C32.565 11.5581 32.5893 11.6034 32.6174 11.6456C32.6454 11.6886 32.6783 11.7284 32.7143 11.7644C32.7502 11.8003 32.7908 11.8331 32.833 11.8612C32.8759 11.8894 32.9212 11.9136 32.9682 11.9331C33.015 11.9526 33.0642 11.9675 33.1142 11.9776C33.165 11.9878 33.2158 11.9933 33.2665 11.9933C33.4728 11.9933 33.6736 11.9097 33.8189 11.7644C33.8557 11.7284 33.8877 11.6886 33.9166 11.6456C33.9447 11.6034 33.9689 11.5581 33.9885 11.5105C34.008 11.4636 34.0229 11.4144 34.033 11.3644C34.0432 11.3144 34.0479 11.2628 34.0479 11.212C34.0479 11.1612 34.0432 11.1097 34.033 11.0597Z" fill="#333333"/>
<path d="M39.2188 0H0.78125C0.349766 0 0 0.349766 0 0.78125V7.53531C0 7.9668 0.349766 8.31656 0.78125 8.31656H1.8757V37.0019C1.8757 37.4334 2.22547 37.7831 2.65695 37.7831H37.343C37.7745 37.7831 38.1243 37.4334 38.1243 37.0019V8.31656H39.2188C39.6502 8.31656 40 7.9668 40 7.53531V0.78125C40 0.349766 39.6502 0 39.2188 0ZM14.8502 1.5625H25.1498V6.75406H14.8502V1.5625ZM14.8502 8.31656H25.1498V18.5224L23.4091 17.315C23.1413 17.1293 22.7864 17.1293 22.5187 17.3149L20 19.0611L17.4812 17.3148C17.3473 17.222 17.1917 17.1756 17.0361 17.1756C16.8804 17.1756 16.7247 17.2221 16.5908 17.3149L14.8502 18.5223V8.31656ZM1.5625 6.75406V1.5625H13.2877V6.75406H1.5625ZM13.2877 8.31656V10.4306H3.4382V8.31656H13.2877V8.31656ZM21.2149 22.4364V36.2206H3.4382V11.993H13.2877V20.0151C13.2877 20.3058 13.4491 20.5724 13.7067 20.7073C13.9643 20.8421 14.2755 20.8227 14.5143 20.657L17.0362 18.9077L19.5548 20.6538C19.8226 20.8395 20.1774 20.8395 20.4451 20.6538L22.9638 18.9077L25.4857 20.657C25.6189 20.7494 25.7746 20.7963 25.931 20.7963C26.0549 20.7963 26.1794 20.7668 26.2932 20.7073C26.5508 20.5724 26.7122 20.3058 26.7122 20.0151V11.993H30.1389C30.5703 11.993 30.9202 11.6433 30.9202 11.2118C30.9202 10.7803 30.5703 10.4305 30.1389 10.4305H26.7122V8.31648H36.5617V21.6552H21.9962C21.5648 21.6552 21.2149 22.0049 21.2149 22.4364ZM36.5618 36.2206H22.7774V23.2177H36.5618V36.2206ZM38.4375 6.75406H26.7123V1.5625H38.4375V6.75406Z" fill="#333333"/>
<path d="M35.2022 28.0447C35.0264 26.3059 33.6157 24.998 31.9102 24.998C31.0804 24.998 30.328 25.3318 29.7588 25.9262C29.1429 25.3519 28.3091 24.998 27.4637 24.998C25.7731 24.998 24.4729 26.2495 24.2935 28.045C24.27 28.2039 24.236 28.625 24.3899 29.2452C24.6228 30.1819 25.1567 31.0307 25.9397 31.7047L29.1957 34.452C29.3537 34.5866 29.5507 34.6538 29.7477 34.6538C29.9445 34.6538 30.1413 34.5868 30.2993 34.4526L33.5614 31.6999C34.3388 31.0314 34.8727 30.1826 35.1056 29.2452C35.2598 28.6247 35.2255 28.2034 35.2022 28.0447ZM33.5891 28.8684C33.4348 29.4897 33.0729 30.0591 32.5481 30.5105L29.7477 32.8735L26.9531 30.5155C26.4225 30.0587 26.0606 29.4892 25.9063 28.8684C25.8248 28.5398 25.8334 28.338 25.8375 28.2875C25.8453 28.2569 25.8428 28.2569 25.8465 28.2167C25.9237 27.3923 26.4536 26.5604 27.4636 26.5604C28.1313 26.5604 28.8092 26.9949 29.0753 27.5935C29.2008 27.8755 29.4806 28.0573 29.7892 28.0573C29.7892 28.0573 29.7893 28.0573 29.7894 28.0573C30.0981 28.0573 30.3779 27.8755 30.5032 27.5933C30.6746 27.2076 31.0852 26.5605 31.9102 26.5605C32.8279 26.5605 33.5592 27.257 33.6491 28.2168C33.6528 28.2569 33.6502 28.2569 33.6581 28.2875C33.6621 28.338 33.6708 28.5398 33.5891 28.8684Z" fill="#333333"/>
</svg>
