<svg width="136" height="136" viewBox="0 0 136 136" fill="none" xmlns="http://www.w3.org/2000/svg">
<circle cx="68" cy="68" r="68" fill="#3D9BE9" fill-opacity="0.3"/>
<circle cx="68" cy="68" r="50" fill="#3D9BE9" fill-opacity="0.8"/>
<path d="M82.9472 70.6482C82.689 70.3895 82.3823 70.1843 82.0446 70.0442C81.707 69.9042 81.345 69.8321 80.9795 69.8321C80.614 69.8321 80.252 69.9042 79.9144 70.0442C79.5767 70.1843 79.27 70.3895 79.0118 70.6482L74.5753 75.0846C72.5185 74.4723 68.6805 73.0807 66.248 70.6482C63.8154 68.2156 62.4238 64.3776 61.8115 62.3208L66.248 57.8844C66.5066 57.6261 66.7119 57.3194 66.8519 56.9817C66.9919 56.6441 67.064 56.2822 67.064 55.9166C67.064 55.5511 66.9919 55.1892 66.8519 54.8515C66.7119 54.5139 66.5066 54.2071 66.248 53.9489L55.1151 42.816C54.8569 42.5574 54.5501 42.3521 54.2125 42.2121C53.8748 42.0721 53.5129 42 53.1474 42C52.7818 42 52.4199 42.0721 52.0823 42.2121C51.7446 42.3521 51.4379 42.5574 51.1796 42.816L43.6316 50.3641C42.5739 51.4217 41.9783 52.8746 42.0006 54.358C42.0646 58.3213 43.1139 72.0871 53.9629 82.9361C64.8118 93.785 78.5776 94.8315 82.5437 94.8983H82.6216C84.0911 94.8983 85.48 94.3194 86.532 93.2673L94.0801 85.7193C94.3388 85.461 94.544 85.1543 94.684 84.8167C94.824 84.479 94.8961 84.1171 94.8961 83.7515C94.8961 83.386 94.824 83.0241 94.684 82.6864C94.544 82.3488 94.3388 82.0421 94.0801 81.7838L82.9472 70.6482ZM82.5938 89.3291C79.1203 89.2706 67.236 88.3383 57.8983 78.9978C48.53 69.6295 47.6227 57.7034 47.567 54.2996L53.1474 48.7192L60.3448 55.9166L56.7461 59.5153C56.4189 59.8422 56.1784 60.2455 56.0462 60.6886C55.9141 61.1318 55.8944 61.6009 55.989 62.0536C56.0558 62.3737 57.6896 69.9635 62.3097 74.5836C66.9298 79.2038 74.5197 80.8375 74.8397 80.9043C75.2921 81.0016 75.7617 80.9835 76.2053 80.8517C76.6489 80.7199 77.0522 80.4786 77.378 80.1501L80.9795 76.5514L88.1769 83.7488L82.5938 89.3291V89.3291Z" fill="#FDF7F7"/>
</svg>
