<svg width="55" height="40" viewBox="0 0 55 40" fill="none" xmlns="http://www.w3.org/2000/svg">
<path d="M47.1211 32.9352C47.1211 35.7953 45.3516 38.1354 43.1398 38.1354C40.928 38.1354 39.1584 35.7953 39.1584 32.9352C39.1584 30.075 40.928 27.7349 43.1398 27.7349C45.3516 27.7349 47.1211 30.075 47.1211 32.9352Z" fill="#FECC00"/>
<path d="M15.3597 32.9352C15.3597 35.7953 13.5902 38.1354 11.3784 38.1354C9.16658 38.1354 7.39706 35.7953 7.39706 32.9352C7.39706 30.075 9.16658 27.7349 11.3784 27.7349C13.5902 27.7349 15.3597 30.075 15.3597 32.9352Z" fill="#FECC00"/>
<path d="M52.3151 16.4672H47.0066L39.6632 8.49337C39.3094 8.05998 38.69 7.79997 38.1591 7.79997H28.427V3.37972C28.427 1.99301 27.2768 0.866211 25.8612 0.866211H7.10485C5.68929 0.866211 4.53906 1.99291 4.53906 3.37972V22.5342H28.4271V32.9347H38.1592C38.1592 30.0746 40.548 27.7344 43.4677 27.7344C46.3873 27.7344 48.7761 30.0746 48.7761 32.9347H52.0496C52.6689 32.9347 53.1998 32.4147 53.1998 31.808V18.1139C53.1999 17.5939 52.669 16.8138 52.3151 16.4672Z" fill="white"/>
<path d="M30.3117 23.4013H2V3.38019C2 1.47345 3.50409 0 5.45049 0H26.9497C28.8076 0 30.3117 1.47345 30.3117 3.38019V23.4013ZM3.76952 21.6678H28.5422V3.38019C28.5422 2.51351 27.8344 1.73346 26.8612 1.73346H5.45049C4.47724 1.73346 3.76952 2.42687 3.76952 3.38019V21.6678Z" fill="white"/>
<path d="M44.4674 39.0021C41.0169 39.0021 38.2742 36.3153 38.2742 32.9351C38.2742 29.5549 41.0169 26.8682 44.4674 26.8682C47.9178 26.8682 50.6605 29.5549 50.6605 32.9351C50.6605 36.3153 47.9178 39.0021 44.4674 39.0021ZM44.4674 28.6015C41.9901 28.6015 40.0436 30.5083 40.0436 32.9351C40.0436 35.362 41.99 37.2687 44.4674 37.2687C46.9446 37.2687 48.8911 35.362 48.8911 32.9351C48.8911 30.5083 46.9446 28.6015 44.4674 28.6015Z" fill="white"/>
<path d="M12.6173 39.0021C9.1668 39.0021 6.42413 36.3153 6.42413 32.9351C6.42413 29.5549 9.1668 26.8682 12.6173 26.8682C16.0678 26.8682 18.8104 29.5549 18.8104 32.9351C18.8104 36.3153 16.0678 39.0021 12.6173 39.0021ZM12.6173 28.6015C10.14 28.6015 8.19355 30.5083 8.19355 32.9351C8.19355 35.362 10.1399 37.2687 12.6173 37.2687C15.0946 37.2687 17.041 35.362 17.041 32.9351C17.041 30.5083 15.0945 28.6015 12.6173 28.6015Z" fill="white"/>
<path d="M53.7579 23.4013H38.7173C38.1864 23.4013 37.8326 23.0547 37.8326 22.5346C37.8326 22.0146 38.1864 21.668 38.7173 21.668H53.7579C54.2888 21.668 54.6426 22.0146 54.6426 22.5346C54.6426 23.0546 54.2888 23.4013 53.7579 23.4013Z" fill="white"/>
<path d="M16.1558 15.601H2.88471C2.35386 15.601 2 15.2544 2 14.7344C2 14.2143 2.35386 13.8677 2.88471 13.8677H16.1558C16.6867 13.8677 17.0405 14.2143 17.0405 14.7344C17.0406 15.2543 16.6867 15.601 16.1558 15.601Z" fill="white"/>
<path d="M12.6169 11.2671H2.88471C2.35386 11.2671 2 10.9204 2 10.4004C2 9.88034 2.35386 9.53369 2.88471 9.53369H12.6169C13.1477 9.53369 13.5016 9.88034 13.5016 10.4004C13.5016 10.9204 13.1477 11.2671 12.6169 11.2671Z" fill="white"/>
<path d="M50.253 33.8018H46.891V32.9351C46.891 30.5084 44.9446 28.6015 42.4672 28.6015C39.99 28.6015 38.0435 30.5083 38.0435 32.9351V33.8018H26.542V6.93359H37.4243C38.663 6.93359 39.7247 7.45362 40.5209 8.40704L46.3602 15.6008L46.4487 15.6874H50.1646C51.7571 15.6874 52.9958 16.9875 52.9958 18.461V31.0283C53.0842 32.5018 51.7571 33.8018 50.253 33.8018ZM48.572 32.0684H50.1646C50.7839 32.0684 51.2263 31.5483 51.2263 30.9417V18.461C51.2263 17.8543 50.6954 17.4209 50.1646 17.4209H46.4487C45.8294 17.4209 45.2985 17.1609 44.9446 16.7275L39.1053 9.53374C38.7514 8.92707 38.132 8.66706 37.4243 8.66706H28.3115V32.0684H36.3626C36.805 29.1216 39.3707 26.8681 42.4673 26.8681C45.564 26.8681 48.1296 29.1216 48.572 32.0684Z" fill="white"/>
<path d="M30.3117 33.802H17.0406V32.9353C17.0406 30.5086 15.0942 28.6017 12.6169 28.6017C10.1395 28.6017 8.19315 30.5085 8.19315 32.9353V33.802H4.65422C3.15013 33.802 2 32.6753 2 31.2019V21.668H30.3117V33.802ZM18.7216 32.0685H28.5422V23.4014H3.76952V31.2019C3.76952 31.7219 4.12338 32.0685 4.65422 32.0685H6.51218C6.95458 29.1218 9.52026 26.8683 12.6169 26.8683C15.7135 26.8683 18.2792 29.1218 18.7216 32.0685Z" fill="white"/>
<path d="M14.3863 32.9351C14.3863 33.8885 13.59 34.6686 12.6168 34.6686C11.6435 34.6686 10.8473 33.8885 10.8473 32.9351C10.8473 31.9817 11.6435 31.2017 12.6168 31.2017C13.59 31.2017 14.3863 31.9818 14.3863 32.9351Z" fill="white"/>
<path d="M46.2374 32.9351C46.2374 33.8885 45.4411 34.6686 44.4679 34.6686C43.4946 34.6686 42.6983 33.8885 42.6983 32.9351C42.6983 31.9817 43.4946 31.2017 44.4679 31.2017C45.4411 31.2018 46.2374 31.9818 46.2374 32.9351Z" fill="white"/>
<path d="M47.742 14.734H36.2404C34.9132 14.734 33.8516 13.694 33.8516 12.3939V6.93359H39.4254C40.6641 6.93359 41.7258 7.45362 42.5221 8.40704L47.742 14.734ZM35.6211 8.66706V12.3939C35.6211 12.7405 35.8865 13.0006 36.2404 13.0006H44.1146L41.1949 9.447C40.7525 8.92697 40.1333 8.66696 39.4254 8.66696L35.6211 8.66706Z" fill="white"/>
<path d="M44.202 32.9352C44.202 35.7953 42.4686 38.1354 40.3018 38.1354C38.135 38.1354 36.4016 35.7953 36.4016 32.9352C36.4016 30.075 38.135 27.7349 40.3018 27.7349C42.4686 27.7349 44.202 30.075 44.202 32.9352Z" fill="#FECC00"/>
<path d="M13.0878 32.9352C13.0878 35.7953 11.3543 38.1354 9.18757 38.1354C7.02082 38.1354 5.28735 35.7953 5.28735 32.9352C5.28735 30.075 7.02082 27.7349 9.18757 27.7349C11.3543 27.7349 13.0878 30.075 13.0878 32.9352Z" fill="#FECC00"/>
<path d="M50.2691 16.4677H45.0688L37.875 8.49386C37.5284 8.06047 36.9216 7.80045 36.4016 7.80045H26.8677V3.38021C26.8677 1.9935 25.741 0.866699 24.3542 0.866699H5.97997C4.59326 0.866699 3.46646 1.99339 3.46646 3.38021V22.5346H26.8678V32.9352H36.4017C36.4017 30.0751 38.7418 27.7349 41.602 27.7349C44.4621 27.7349 46.8023 30.0751 46.8023 32.9352H50.0091C50.6157 32.9352 51.1358 32.4152 51.1358 31.8085V18.1144C51.1359 17.5944 50.6158 16.8143 50.2691 16.4677Z" fill="#FED100"/>
<path d="M27.7349 23.4013H0V3.38019C0 1.47345 1.47345 0 3.38019 0H24.4414C26.2615 0 27.7349 1.47345 27.7349 3.38019V23.4013ZM1.73346 21.6678H26.0014V3.38019C26.0014 2.51351 25.308 1.73346 24.3547 1.73346H3.38019C2.42677 1.73346 1.73346 2.42687 1.73346 3.38019V21.6678Z" fill="#333333"/>
<path d="M41.6019 39.0021C38.2218 39.0021 35.535 36.3153 35.535 32.9351C35.535 29.5549 38.2218 26.8682 41.6019 26.8682C44.9821 26.8682 47.6689 29.5549 47.6689 32.9351C47.6689 36.3153 44.9821 39.0021 41.6019 39.0021ZM41.6019 28.6015C39.1752 28.6015 37.2683 30.5083 37.2683 32.9351C37.2683 35.362 39.1751 37.2687 41.6019 37.2687C44.0287 37.2687 45.9356 35.362 45.9356 32.9351C45.9356 30.5083 44.0287 28.6015 41.6019 28.6015Z" fill="#333333"/>
<path d="M10.401 39.0021C7.0208 39.0021 4.33401 36.3153 4.33401 32.9351C4.33401 29.5549 7.0208 26.8682 10.401 26.8682C13.7812 26.8682 16.468 29.5549 16.468 32.9351C16.468 36.3153 13.7812 39.0021 10.401 39.0021ZM10.401 28.6015C7.97422 28.6015 6.06738 30.5083 6.06738 32.9351C6.06738 35.362 7.97412 37.2687 10.401 37.2687C12.8279 37.2687 14.7346 35.362 14.7346 32.9351C14.7346 30.5083 12.8278 28.6015 10.401 28.6015Z" fill="#333333"/>
<path d="M50.7033 23.4013H35.9691C35.449 23.4013 35.1024 23.0547 35.1024 22.5346C35.1024 22.0146 35.449 21.668 35.9691 21.668H50.7033C51.2233 21.668 51.5699 22.0146 51.5699 22.5346C51.5699 23.0546 51.2233 23.4013 50.7033 23.4013Z" fill="#333333"/>
<path d="M13.8674 15.601H0.866681C0.346652 15.601 0 15.2544 0 14.7344C0 14.2143 0.346652 13.8677 0.866681 13.8677H13.8674C14.3874 13.8677 14.7341 14.2143 14.7341 14.7344C14.7342 15.2543 14.3874 15.601 13.8674 15.601Z" fill="#333333"/>
<path d="M10.4006 11.2671H0.866681C0.346652 11.2671 0 10.9204 0 10.4004C0 9.88034 0.346652 9.53369 0.866681 9.53369H10.4006C10.9206 9.53369 11.2673 9.88034 11.2673 10.4004C11.2673 10.9204 10.9206 11.2671 10.4006 11.2671Z" fill="#333333"/>
<path d="M49.2292 33.8018H45.9356V32.9351C45.9356 30.5084 44.0289 28.6015 41.602 28.6015C39.1753 28.6015 37.2684 30.5083 37.2684 32.9351V33.8018H26.0013V6.93359H36.6618C37.8753 6.93359 38.9153 7.45362 39.6954 8.40704L45.4157 15.6008L45.5023 15.6874H49.1425C50.7026 15.6874 51.9161 16.9875 51.9161 18.461V31.0283C52.0027 32.5018 50.7026 33.8018 49.2292 33.8018ZM47.5825 32.0684H49.1425C49.7492 32.0684 50.1826 31.5483 50.1826 30.9417V18.461C50.1826 17.8543 49.6626 17.4209 49.1425 17.4209H45.5023C44.8957 17.4209 44.3756 17.1609 44.0289 16.7275L38.3086 9.53374C37.9619 8.92707 37.3552 8.66706 36.6618 8.66706H27.7347V32.0684H35.6218C36.0552 29.1216 38.5686 26.8681 41.6021 26.8681C44.6357 26.8681 47.1491 29.1216 47.5825 32.0684Z" fill="#333333"/>
<path d="M27.7349 33.802H14.7342V32.9353C14.7342 30.5086 12.8274 28.6017 10.4006 28.6017C7.97371 28.6017 6.06697 30.5085 6.06697 32.9353V33.802H2.60014C1.1267 33.802 0 32.6753 0 31.2019V21.668H27.7349V33.802ZM16.3809 32.0685H26.0014V23.4014H1.73346V31.2019C1.73346 31.7219 2.08012 32.0685 2.60014 32.0685H4.42025C4.85364 29.1218 7.36704 26.8683 10.4006 26.8683C13.4341 26.8683 15.9475 29.1218 16.3809 32.0685Z" fill="#333333"/>
<path d="M12.1335 32.9351C12.1335 33.8885 11.3535 34.6686 10.4001 34.6686C9.44664 34.6686 8.6666 33.8885 8.6666 32.9351C8.6666 31.9817 9.44664 31.2017 10.4001 31.2017C11.3535 31.2017 12.1335 31.9818 12.1335 32.9351Z" fill="#333333"/>
<path d="M43.3359 32.9351C43.3359 33.8885 42.5559 34.6686 41.6025 34.6686C40.649 34.6686 39.869 33.8885 39.869 32.9351C39.869 31.9817 40.649 31.2017 41.6025 31.2017C42.5559 31.2018 43.3359 31.9818 43.3359 32.9351Z" fill="#333333"/>
<path d="M44.8093 14.734H33.542C32.242 14.734 31.2019 13.694 31.2019 12.3939V6.93359H36.6622C37.8756 6.93359 38.9157 7.45362 39.6957 8.40704L44.8093 14.734ZM32.9354 8.66706V12.3939C32.9354 12.7405 33.1954 13.0006 33.542 13.0006H41.2558L38.3957 9.447C37.9623 8.92697 37.3556 8.66696 36.6622 8.66696L32.9354 8.66706Z" fill="#333333"/>
</svg>
