<svg xmlns="http://www.w3.org/2000/svg" viewBox="0 0 12.42 17.9"><defs><style>.cls-1{fill:#ff352b;}.cls-2{fill:#fff;}.cls-3{fill:#fed100;}.cls-4{fill:#455a64;}</style></defs><title>Ресурс 3</title><g id="Слой_2" data-name="Слой 2"><g id="Слой_1-2" data-name="Слой 1"><path class="cls-1" d="M2.22,0c-.5,0-.76.18-.82.62a1.27,1.27,0,0,0,0,.2V.89S1.4,1,1.4,1a.38.38,0,0,1,0,.15v2.1a.68.68,0,0,1,.67-.49.7.7,0,0,1,.7.69.7.7,0,0,1-1.37.22v9.23a.68.68,0,0,1,.66-.49.7.7,0,0,1,.71.69.7.7,0,0,1-1.37.21v4a.68.68,0,0,0,.74.58h2V7.21c0-.33,0-.33.31-.33H9.64v-4a.87.87,0,0,0-.47-.82C8.11,1.47,7.07.82,6,.19A1.6,1.6,0,0,0,5.33,0C4.29,0,3.26,0,2.22,0ZM5.52,1.5h.07L8.18,3.07a.27.27,0,0,1,.1.21c0,.47,0,.94,0,1.4V5.5H5.52Z"/><path class="cls-2" d="M5.51,5.5H8.28V4.67c0-.46,0-.93,0-1.4a.29.29,0,0,0-.09-.21L5.58,1.5H5.51Z"/><path class="cls-2" d="M2.06,12.38a.7.7,0,1,0,0,1.4.7.7,0,0,0,.69-.71A.69.69,0,0,0,2.06,12.38Z"/><path class="cls-2" d="M2.76,3.42a.69.69,0,0,0-.7-.69.69.69,0,0,0-.7.71.7.7,0,1,0,1.4,0Z"/><path class="cls-3" d="M2.75,8.24h11a0,0,0,0,1,0,0v7.58a.7.7,0,0,1-.7.7H3.45a.7.7,0,0,1-.7-.7V8.24a0,0,0,0,1,0,0Z" transform="translate(-4.1 20.66) rotate(-90)"/><circle class="cls-4" cx="2.06" cy="13.08" r="2.06"/><circle class="cls-4" cx="2.06" cy="3.43" r="2.06"/><circle class="cls-2" cx="2.06" cy="13.08" r="0.68"/><circle class="cls-2" cx="2.06" cy="3.43" r="0.68"/></g></g></svg>